<?xml version="1.0" encoding="us-ascii" standalone="no"?><svg xmlns="http://www.w3.org/2000/svg" xmlns:xlink="http://www.w3.org/1999/xlink" contentStyleType="text/css" height="669px" preserveAspectRatio="none" style="width:1565px;height:669px;background:#FFFFFF;" version="1.1" viewBox="0 0 1565 669" width="1565px" zoomAndPan="magnify"><defs/><g><!--cluster ca--><g id="cluster_ca"><path d="M8.5,6 L25.5,6 A3.75,3.75 0 0 1 28,8.5 L35,29.6094 L1555.5,29.6094 A2.5,2.5 0 0 1 1558,32.1094 L1558,659.5 A2.5,2.5 0 0 1 1555.5,662 L8.5,662 A2.5,2.5 0 0 1 6,659.5 L6,8.5 A2.5,2.5 0 0 1 8.5,6 " fill="none" style="stroke:#000000;stroke-width:1.5;"/><line style="stroke:#000000;stroke-width:1.5;" x1="6" x2="35" y1="29.6094" y2="29.6094"/><text fill="#000000" font-family="sans-serif" font-size="14" font-weight="bold" lengthAdjust="spacing" textLength="16" x="10" y="22.5332">ca</text></g><!--cluster shahrestani--><g id="cluster_shahrestani"><path d="M32.5,50 L116.5,50 A3.75,3.75 0 0 1 119,52.5 L126,73.6094 L1531.5,73.6094 A2.5,2.5 0 0 1 1534,76.1094 L1534,635.5 A2.5,2.5 0 0 1 1531.5,638 L32.5,638 A2.5,2.5 0 0 1 30,635.5 L30,52.5 A2.5,2.5 0 0 1 32.5,50 " fill="none" style="stroke:#000000;stroke-width:1.5;"/><line style="stroke:#000000;stroke-width:1.5;" x1="30" x2="126" y1="73.6094" y2="73.6094"/><text fill="#000000" font-family="sans-serif" font-size="14" font-weight="bold" lengthAdjust="spacing" textLength="83" x="34" y="66.5332">shahrestani</text></g><!--cluster ali--><g id="cluster_ali"><path d="M56.5,94 L73.5,94 A3.75,3.75 0 0 1 76,96.5 L83,117.6094 L1507.5,117.6094 A2.5,2.5 0 0 1 1510,120.1094 L1510,611.5 A2.5,2.5 0 0 1 1507.5,614 L56.5,614 A2.5,2.5 0 0 1 54,611.5 L54,96.5 A2.5,2.5 0 0 1 56.5,94 " fill="none" style="stroke:#000000;stroke-width:1.5;"/><line style="stroke:#000000;stroke-width:1.5;" x1="54" x2="83" y1="117.6094" y2="117.6094"/><text fill="#000000" font-family="sans-serif" font-size="14" font-weight="bold" lengthAdjust="spacing" textLength="16" x="58" y="110.5332">ali</text></g><!--cluster edu--><g id="cluster_edu"><path d="M80.5,138 L108.5,138 A3.75,3.75 0 0 1 111,140.5 L118,161.6094 L1483.5,161.6094 A2.5,2.5 0 0 1 1486,164.1094 L1486,587.5 A2.5,2.5 0 0 1 1483.5,590 L80.5,590 A2.5,2.5 0 0 1 78,587.5 L78,140.5 A2.5,2.5 0 0 1 80.5,138 " fill="none" style="stroke:#000000;stroke-width:1.5;"/><line style="stroke:#000000;stroke-width:1.5;" x1="78" x2="118" y1="161.6094" y2="161.6094"/><text fill="#000000" font-family="sans-serif" font-size="14" font-weight="bold" lengthAdjust="spacing" textLength="27" x="82" y="154.5332">edu</text></g><!--cluster vanier--><g id="cluster_vanier"><path d="M104.5,182 L150.5,182 A3.75,3.75 0 0 1 153,184.5 L160,205.6094 L1459.5,205.6094 A2.5,2.5 0 0 1 1462,208.1094 L1462,563.5 A2.5,2.5 0 0 1 1459.5,566 L104.5,566 A2.5,2.5 0 0 1 102,563.5 L102,184.5 A2.5,2.5 0 0 1 104.5,182 " fill="none" style="stroke:#000000;stroke-width:1.5;"/><line style="stroke:#000000;stroke-width:1.5;" x1="102" x2="160" y1="205.6094" y2="205.6094"/><text fill="#000000" font-family="sans-serif" font-size="14" font-weight="bold" lengthAdjust="spacing" textLength="45" x="106" y="198.5332">vanier</text></g><!--cluster businesslogic--><g id="cluster_businesslogic"><path d="M128.5,226 L227.5,226 A3.75,3.75 0 0 1 230,228.5 L237,249.6094 L1435.5,249.6094 A2.5,2.5 0 0 1 1438,252.1094 L1438,539.5 A2.5,2.5 0 0 1 1435.5,542 L128.5,542 A2.5,2.5 0 0 1 126,539.5 L126,228.5 A2.5,2.5 0 0 1 128.5,226 " fill="none" style="stroke:#000000;stroke-width:1.5;"/><line style="stroke:#000000;stroke-width:1.5;" x1="126" x2="237" y1="249.6094" y2="249.6094"/><text fill="#000000" font-family="sans-serif" font-size="14" font-weight="bold" lengthAdjust="spacing" textLength="98" x="130" y="242.5332">businesslogic</text></g><!--class Account--><g id="elem_Account"><rect codeLine="1" fill="#F1F1F1" height="48" id="Account" rx="2.5" ry="2.5" style="stroke:#181818;stroke-width:0.5;" width="83" x="710.5" y="370"/><ellipse cx="725.5" cy="386" fill="#A9DCDF" rx="11" ry="11" style="stroke:#181818;stroke-width:1.0;"/><path d="M727.6875,387.7656 L723.5469,387.7656 L723.125,388.7969 L723.5469,388.7969 Q724.1563,388.7969 724.4219,389.0313 Q724.6875,389.2656 724.6875,389.6563 Q724.6875,390.0313 724.4219,390.2656 Q724.1563,390.5 723.5469,390.5 L721.25,390.5 Q720.6406,390.5 720.3906,390.2656 Q720.125,390.0313 720.125,389.6406 Q720.125,389.2656 720.4063,389.0313 Q720.6719,388.7813 721.2969,388.7969 L723.9688,382.1406 L722.8594,382.1406 Q722.25,382.1406 721.9844,381.9063 Q721.7188,381.6719 721.7188,381.2813 Q721.7188,380.9063 721.9844,380.6719 Q722.25,380.4375 722.8594,380.4375 L726.5313,380.4375 L729.9219,388.7969 Q730.5156,388.7969 730.7031,388.9375 Q731.0938,389.2031 731.0938,389.6563 Q731.0938,390.0313 730.8281,390.2656 Q730.5781,390.5 729.9688,390.5 L727.6719,390.5 Q727.0625,390.5 726.7969,390.2656 Q726.5313,390.0313 726.5313,389.6406 Q726.5313,389.2656 726.7969,389.0313 Q727.0625,388.7969 727.6719,388.7969 L728.0938,388.7969 L727.6875,387.7656 Z M726.9688,386.0625 L725.6094,382.6875 L724.2344,386.0625 L726.9688,386.0625 Z " fill="#000000"/><text fill="#000000" font-family="sans-serif" font-size="14" font-style="italic" lengthAdjust="spacing" textLength="51" x="739.5" y="391.7285">Account</text><line style="stroke:#181818;stroke-width:0.5;" x1="711.5" x2="792.5" y1="402" y2="402"/><line style="stroke:#181818;stroke-width:0.5;" x1="711.5" x2="792.5" y1="410" y2="410"/></g><!--class User--><g id="elem_User"><rect codeLine="2" fill="#F1F1F1" height="48" id="User" rx="2.5" ry="2.5" style="stroke:#181818;stroke-width:0.5;" width="62" x="322" y="370"/><ellipse cx="337" cy="386" fill="#A9DCDF" rx="11" ry="11" style="stroke:#181818;stroke-width:1.0;"/><path d="M339.1875,387.7656 L335.0469,387.7656 L334.625,388.7969 L335.0469,388.7969 Q335.6563,388.7969 335.9219,389.0313 Q336.1875,389.2656 336.1875,389.6563 Q336.1875,390.0313 335.9219,390.2656 Q335.6563,390.5 335.0469,390.5 L332.75,390.5 Q332.1406,390.5 331.8906,390.2656 Q331.625,390.0313 331.625,389.6406 Q331.625,389.2656 331.9063,389.0313 Q332.1719,388.7813 332.7969,388.7969 L335.4688,382.1406 L334.3594,382.1406 Q333.75,382.1406 333.4844,381.9063 Q333.2188,381.6719 333.2188,381.2813 Q333.2188,380.9063 333.4844,380.6719 Q333.75,380.4375 334.3594,380.4375 L338.0313,380.4375 L341.4219,388.7969 Q342.0156,388.7969 342.2031,388.9375 Q342.5938,389.2031 342.5938,389.6563 Q342.5938,390.0313 342.3281,390.2656 Q342.0781,390.5 341.4688,390.5 L339.1719,390.5 Q338.5625,390.5 338.2969,390.2656 Q338.0313,390.0313 338.0313,389.6406 Q338.0313,389.2656 338.2969,389.0313 Q338.5625,388.7969 339.1719,388.7969 L339.5938,388.7969 L339.1875,387.7656 Z M338.4688,386.0625 L337.1094,382.6875 L335.7344,386.0625 L338.4688,386.0625 Z " fill="#000000"/><text fill="#000000" font-family="sans-serif" font-size="14" font-style="italic" lengthAdjust="spacing" textLength="30" x="351" y="391.7285">User</text><line style="stroke:#181818;stroke-width:0.5;" x1="323" x2="383" y1="402" y2="402"/><line style="stroke:#181818;stroke-width:0.5;" x1="323" x2="383" y1="410" y2="410"/></g><!--class BudgetAccount--><g id="elem_BudgetAccount"><rect codeLine="3" fill="#F1F1F1" height="48" id="BudgetAccount" rx="2.5" ry="2.5" style="stroke:#181818;stroke-width:0.5;" width="128" x="773" y="262"/><ellipse cx="788" cy="278" fill="#ADD1B2" rx="11" ry="11" style="stroke:#181818;stroke-width:1.0;"/><path d="M790.7656,273.875 Q790.9219,273.6563 791.1094,273.5469 Q791.2969,273.4375 791.5156,273.4375 Q791.8906,273.4375 792.125,273.7031 Q792.3594,273.9531 792.3594,274.5625 L792.3594,276.0156 Q792.3594,276.625 792.125,276.8906 Q791.8906,277.1563 791.5156,277.1563 Q791.1719,277.1563 790.9688,276.9531 Q790.7656,276.7656 790.6563,276.25 Q790.6094,275.8906 790.4219,275.7031 Q790.0938,275.3281 789.4844,275.1094 Q788.875,274.8906 788.25,274.8906 Q787.4844,274.8906 786.8438,275.2188 Q786.2188,275.5469 785.7188,276.2969 Q785.2344,277.0469 785.2344,278.0781 L785.2344,279.1719 Q785.2344,280.4063 786.125,281.2344 Q787.0156,282.0469 788.6094,282.0469 Q789.5469,282.0469 790.2031,281.7969 Q790.5938,281.6406 791.0156,281.2031 Q791.2813,280.9375 791.4219,280.8594 Q791.5781,280.7813 791.7813,280.7813 Q792.1094,280.7813 792.3594,281.0469 Q792.625,281.2969 792.625,281.6406 Q792.625,281.9844 792.2813,282.3906 Q791.7813,282.9688 790.9844,283.2969 Q789.9063,283.75 788.6094,283.75 Q787.0938,283.75 785.8906,283.125 Q784.9063,282.625 784.2188,281.5625 Q783.5313,280.4844 783.5313,279.2031 L783.5313,278.0469 Q783.5313,276.7188 784.1406,275.5781 Q784.7656,274.4219 785.8594,273.8125 Q786.9531,273.1875 788.1875,273.1875 Q788.9219,273.1875 789.5625,273.3594 Q790.2188,273.5156 790.7656,273.875 Z " fill="#000000"/><text fill="#000000" font-family="sans-serif" font-size="14" lengthAdjust="spacing" textLength="96" x="802" y="283.7285">BudgetAccount</text><line style="stroke:#181818;stroke-width:0.5;" x1="774" x2="900" y1="294" y2="294"/><line style="stroke:#181818;stroke-width:0.5;" x1="774" x2="900" y1="302" y2="302"/></g><!--class LogicallyInvalidActionException--><g id="elem_LogicallyInvalidActionException"><rect codeLine="4" fill="#F1F1F1" height="48" id="LogicallyInvalidActionException" rx="2.5" ry="2.5" style="stroke:#181818;stroke-width:0.5;" width="227" x="936.5" y="262"/><ellipse cx="951.5" cy="278" fill="#ADD1B2" rx="11" ry="11" style="stroke:#181818;stroke-width:1.0;"/><path d="M954.2656,273.875 Q954.4219,273.6563 954.6094,273.5469 Q954.7969,273.4375 955.0156,273.4375 Q955.3906,273.4375 955.625,273.7031 Q955.8594,273.9531 955.8594,274.5625 L955.8594,276.0156 Q955.8594,276.625 955.625,276.8906 Q955.3906,277.1563 955.0156,277.1563 Q954.6719,277.1563 954.4688,276.9531 Q954.2656,276.7656 954.1563,276.25 Q954.1094,275.8906 953.9219,275.7031 Q953.5938,275.3281 952.9844,275.1094 Q952.375,274.8906 951.75,274.8906 Q950.9844,274.8906 950.3438,275.2188 Q949.7188,275.5469 949.2188,276.2969 Q948.7344,277.0469 948.7344,278.0781 L948.7344,279.1719 Q948.7344,280.4063 949.625,281.2344 Q950.5156,282.0469 952.1094,282.0469 Q953.0469,282.0469 953.7031,281.7969 Q954.0938,281.6406 954.5156,281.2031 Q954.7813,280.9375 954.9219,280.8594 Q955.0781,280.7813 955.2813,280.7813 Q955.6094,280.7813 955.8594,281.0469 Q956.125,281.2969 956.125,281.6406 Q956.125,281.9844 955.7813,282.3906 Q955.2813,282.9688 954.4844,283.2969 Q953.4063,283.75 952.1094,283.75 Q950.5938,283.75 949.3906,283.125 Q948.4063,282.625 947.7188,281.5625 Q947.0313,280.4844 947.0313,279.2031 L947.0313,278.0469 Q947.0313,276.7188 947.6406,275.5781 Q948.2656,274.4219 949.3594,273.8125 Q950.4531,273.1875 951.6875,273.1875 Q952.4219,273.1875 953.0625,273.3594 Q953.7188,273.5156 954.2656,273.875 Z " fill="#000000"/><text fill="#000000" font-family="sans-serif" font-size="14" lengthAdjust="spacing" textLength="195" x="965.5" y="283.7285">LogicallyInvalidActionException</text><line style="stroke:#181818;stroke-width:0.5;" x1="937.5" x2="1162.5" y1="294" y2="294"/><line style="stroke:#181818;stroke-width:0.5;" x1="937.5" x2="1162.5" y1="302" y2="302"/></g><!--class Organization--><g id="elem_Organization"><rect codeLine="5" fill="#F1F1F1" height="48" id="Organization" rx="2.5" ry="2.5" style="stroke:#181818;stroke-width:0.5;" width="112" x="1199" y="262"/><ellipse cx="1214" cy="278" fill="#ADD1B2" rx="11" ry="11" style="stroke:#181818;stroke-width:1.0;"/><path d="M1216.7656,273.875 Q1216.9219,273.6563 1217.1094,273.5469 Q1217.2969,273.4375 1217.5156,273.4375 Q1217.8906,273.4375 1218.125,273.7031 Q1218.3594,273.9531 1218.3594,274.5625 L1218.3594,276.0156 Q1218.3594,276.625 1218.125,276.8906 Q1217.8906,277.1563 1217.5156,277.1563 Q1217.1719,277.1563 1216.9688,276.9531 Q1216.7656,276.7656 1216.6563,276.25 Q1216.6094,275.8906 1216.4219,275.7031 Q1216.0938,275.3281 1215.4844,275.1094 Q1214.875,274.8906 1214.25,274.8906 Q1213.4844,274.8906 1212.8438,275.2188 Q1212.2188,275.5469 1211.7188,276.2969 Q1211.2344,277.0469 1211.2344,278.0781 L1211.2344,279.1719 Q1211.2344,280.4063 1212.125,281.2344 Q1213.0156,282.0469 1214.6094,282.0469 Q1215.5469,282.0469 1216.2031,281.7969 Q1216.5938,281.6406 1217.0156,281.2031 Q1217.2813,280.9375 1217.4219,280.8594 Q1217.5781,280.7813 1217.7813,280.7813 Q1218.1094,280.7813 1218.3594,281.0469 Q1218.625,281.2969 1218.625,281.6406 Q1218.625,281.9844 1218.2813,282.3906 Q1217.7813,282.9688 1216.9844,283.2969 Q1215.9063,283.75 1214.6094,283.75 Q1213.0938,283.75 1211.8906,283.125 Q1210.9063,282.625 1210.2188,281.5625 Q1209.5313,280.4844 1209.5313,279.2031 L1209.5313,278.0469 Q1209.5313,276.7188 1210.1406,275.5781 Q1210.7656,274.4219 1211.8594,273.8125 Q1212.9531,273.1875 1214.1875,273.1875 Q1214.9219,273.1875 1215.5625,273.3594 Q1216.2188,273.5156 1216.7656,273.875 Z " fill="#000000"/><text fill="#000000" font-family="sans-serif" font-size="14" lengthAdjust="spacing" textLength="80" x="1228" y="283.7285">Organization</text><line style="stroke:#181818;stroke-width:0.5;" x1="1200" x2="1310" y1="294" y2="294"/><line style="stroke:#181818;stroke-width:0.5;" x1="1200" x2="1310" y1="302" y2="302"/></g><!--class Organizer--><g id="elem_Organizer"><rect codeLine="6" fill="#F1F1F1" height="48" id="Organizer" rx="2.5" ry="2.5" style="stroke:#181818;stroke-width:0.5;" width="94" x="469" y="262"/><ellipse cx="484" cy="278" fill="#ADD1B2" rx="11" ry="11" style="stroke:#181818;stroke-width:1.0;"/><path d="M486.7656,273.875 Q486.9219,273.6563 487.1094,273.5469 Q487.2969,273.4375 487.5156,273.4375 Q487.8906,273.4375 488.125,273.7031 Q488.3594,273.9531 488.3594,274.5625 L488.3594,276.0156 Q488.3594,276.625 488.125,276.8906 Q487.8906,277.1563 487.5156,277.1563 Q487.1719,277.1563 486.9688,276.9531 Q486.7656,276.7656 486.6563,276.25 Q486.6094,275.8906 486.4219,275.7031 Q486.0938,275.3281 485.4844,275.1094 Q484.875,274.8906 484.25,274.8906 Q483.4844,274.8906 482.8438,275.2188 Q482.2188,275.5469 481.7188,276.2969 Q481.2344,277.0469 481.2344,278.0781 L481.2344,279.1719 Q481.2344,280.4063 482.125,281.2344 Q483.0156,282.0469 484.6094,282.0469 Q485.5469,282.0469 486.2031,281.7969 Q486.5938,281.6406 487.0156,281.2031 Q487.2813,280.9375 487.4219,280.8594 Q487.5781,280.7813 487.7813,280.7813 Q488.1094,280.7813 488.3594,281.0469 Q488.625,281.2969 488.625,281.6406 Q488.625,281.9844 488.2813,282.3906 Q487.7813,282.9688 486.9844,283.2969 Q485.9063,283.75 484.6094,283.75 Q483.0938,283.75 481.8906,283.125 Q480.9063,282.625 480.2188,281.5625 Q479.5313,280.4844 479.5313,279.2031 L479.5313,278.0469 Q479.5313,276.7188 480.1406,275.5781 Q480.7656,274.4219 481.8594,273.8125 Q482.9531,273.1875 484.1875,273.1875 Q484.9219,273.1875 485.5625,273.3594 Q486.2188,273.5156 486.7656,273.875 Z " fill="#000000"/><text fill="#000000" font-family="sans-serif" font-size="14" lengthAdjust="spacing" textLength="62" x="498" y="283.7285">Organizer</text><line style="stroke:#181818;stroke-width:0.5;" x1="470" x2="562" y1="294" y2="294"/><line style="stroke:#181818;stroke-width:0.5;" x1="470" x2="562" y1="302" y2="302"/></g><!--class PersonalAccount--><g id="elem_PersonalAccount"><rect codeLine="7" fill="#F1F1F1" height="48" id="PersonalAccount" rx="2.5" ry="2.5" style="stroke:#181818;stroke-width:0.5;" width="139" x="598.5" y="262"/><ellipse cx="613.5" cy="278" fill="#ADD1B2" rx="11" ry="11" style="stroke:#181818;stroke-width:1.0;"/><path d="M616.2656,273.875 Q616.4219,273.6563 616.6094,273.5469 Q616.7969,273.4375 617.0156,273.4375 Q617.3906,273.4375 617.625,273.7031 Q617.8594,273.9531 617.8594,274.5625 L617.8594,276.0156 Q617.8594,276.625 617.625,276.8906 Q617.3906,277.1563 617.0156,277.1563 Q616.6719,277.1563 616.4688,276.9531 Q616.2656,276.7656 616.1563,276.25 Q616.1094,275.8906 615.9219,275.7031 Q615.5938,275.3281 614.9844,275.1094 Q614.375,274.8906 613.75,274.8906 Q612.9844,274.8906 612.3438,275.2188 Q611.7188,275.5469 611.2188,276.2969 Q610.7344,277.0469 610.7344,278.0781 L610.7344,279.1719 Q610.7344,280.4063 611.625,281.2344 Q612.5156,282.0469 614.1094,282.0469 Q615.0469,282.0469 615.7031,281.7969 Q616.0938,281.6406 616.5156,281.2031 Q616.7813,280.9375 616.9219,280.8594 Q617.0781,280.7813 617.2813,280.7813 Q617.6094,280.7813 617.8594,281.0469 Q618.125,281.2969 618.125,281.6406 Q618.125,281.9844 617.7813,282.3906 Q617.2813,282.9688 616.4844,283.2969 Q615.4063,283.75 614.1094,283.75 Q612.5938,283.75 611.3906,283.125 Q610.4063,282.625 609.7188,281.5625 Q609.0313,280.4844 609.0313,279.2031 L609.0313,278.0469 Q609.0313,276.7188 609.6406,275.5781 Q610.2656,274.4219 611.3594,273.8125 Q612.4531,273.1875 613.6875,273.1875 Q614.4219,273.1875 615.0625,273.3594 Q615.7188,273.5156 616.2656,273.875 Z " fill="#000000"/><text fill="#000000" font-family="sans-serif" font-size="14" lengthAdjust="spacing" textLength="107" x="627.5" y="283.7285">PersonalAccount</text><line style="stroke:#181818;stroke-width:0.5;" x1="599.5" x2="736.5" y1="294" y2="294"/><line style="stroke:#181818;stroke-width:0.5;" x1="599.5" x2="736.5" y1="302" y2="302"/></g><!--class Project--><g id="elem_Project"><rect codeLine="8" fill="#F1F1F1" height="48" id="Project" rx="2.5" ry="2.5" style="stroke:#181818;stroke-width:0.5;" width="76" x="1346" y="262"/><ellipse cx="1361" cy="278" fill="#ADD1B2" rx="11" ry="11" style="stroke:#181818;stroke-width:1.0;"/><path d="M1363.7656,273.875 Q1363.9219,273.6563 1364.1094,273.5469 Q1364.2969,273.4375 1364.5156,273.4375 Q1364.8906,273.4375 1365.125,273.7031 Q1365.3594,273.9531 1365.3594,274.5625 L1365.3594,276.0156 Q1365.3594,276.625 1365.125,276.8906 Q1364.8906,277.1563 1364.5156,277.1563 Q1364.1719,277.1563 1363.9688,276.9531 Q1363.7656,276.7656 1363.6563,276.25 Q1363.6094,275.8906 1363.4219,275.7031 Q1363.0938,275.3281 1362.4844,275.1094 Q1361.875,274.8906 1361.25,274.8906 Q1360.4844,274.8906 1359.8438,275.2188 Q1359.2188,275.5469 1358.7188,276.2969 Q1358.2344,277.0469 1358.2344,278.0781 L1358.2344,279.1719 Q1358.2344,280.4063 1359.125,281.2344 Q1360.0156,282.0469 1361.6094,282.0469 Q1362.5469,282.0469 1363.2031,281.7969 Q1363.5938,281.6406 1364.0156,281.2031 Q1364.2813,280.9375 1364.4219,280.8594 Q1364.5781,280.7813 1364.7813,280.7813 Q1365.1094,280.7813 1365.3594,281.0469 Q1365.625,281.2969 1365.625,281.6406 Q1365.625,281.9844 1365.2813,282.3906 Q1364.7813,282.9688 1363.9844,283.2969 Q1362.9063,283.75 1361.6094,283.75 Q1360.0938,283.75 1358.8906,283.125 Q1357.9063,282.625 1357.2188,281.5625 Q1356.5313,280.4844 1356.5313,279.2031 L1356.5313,278.0469 Q1356.5313,276.7188 1357.1406,275.5781 Q1357.7656,274.4219 1358.8594,273.8125 Q1359.9531,273.1875 1361.1875,273.1875 Q1361.9219,273.1875 1362.5625,273.3594 Q1363.2188,273.5156 1363.7656,273.875 Z " fill="#000000"/><text fill="#000000" font-family="sans-serif" font-size="14" lengthAdjust="spacing" textLength="44" x="1375" y="283.7285">Project</text><line style="stroke:#181818;stroke-width:0.5;" x1="1347" x2="1421" y1="294" y2="294"/><line style="stroke:#181818;stroke-width:0.5;" x1="1347" x2="1421" y1="302" y2="302"/></g><!--class Reimbursement--><g id="elem_Reimbursement"><rect codeLine="9" fill="#F1F1F1" height="48" id="Reimbursement" rx="2.5" ry="2.5" style="stroke:#181818;stroke-width:0.5;" width="131" x="942.5" y="370"/><ellipse cx="957.5" cy="386" fill="#ADD1B2" rx="11" ry="11" style="stroke:#181818;stroke-width:1.0;"/><path d="M960.2656,381.875 Q960.4219,381.6563 960.6094,381.5469 Q960.7969,381.4375 961.0156,381.4375 Q961.3906,381.4375 961.625,381.7031 Q961.8594,381.9531 961.8594,382.5625 L961.8594,384.0156 Q961.8594,384.625 961.625,384.8906 Q961.3906,385.1563 961.0156,385.1563 Q960.6719,385.1563 960.4688,384.9531 Q960.2656,384.7656 960.1563,384.25 Q960.1094,383.8906 959.9219,383.7031 Q959.5938,383.3281 958.9844,383.1094 Q958.375,382.8906 957.75,382.8906 Q956.9844,382.8906 956.3438,383.2188 Q955.7188,383.5469 955.2188,384.2969 Q954.7344,385.0469 954.7344,386.0781 L954.7344,387.1719 Q954.7344,388.4063 955.625,389.2344 Q956.5156,390.0469 958.1094,390.0469 Q959.0469,390.0469 959.7031,389.7969 Q960.0938,389.6406 960.5156,389.2031 Q960.7813,388.9375 960.9219,388.8594 Q961.0781,388.7813 961.2813,388.7813 Q961.6094,388.7813 961.8594,389.0469 Q962.125,389.2969 962.125,389.6406 Q962.125,389.9844 961.7813,390.3906 Q961.2813,390.9688 960.4844,391.2969 Q959.4063,391.75 958.1094,391.75 Q956.5938,391.75 955.3906,391.125 Q954.4063,390.625 953.7188,389.5625 Q953.0313,388.4844 953.0313,387.2031 L953.0313,386.0469 Q953.0313,384.7188 953.6406,383.5781 Q954.2656,382.4219 955.3594,381.8125 Q956.4531,381.1875 957.6875,381.1875 Q958.4219,381.1875 959.0625,381.3594 Q959.7188,381.5156 960.2656,381.875 Z " fill="#000000"/><text fill="#000000" font-family="sans-serif" font-size="14" lengthAdjust="spacing" textLength="99" x="971.5" y="391.7285">Reimbursement</text><line style="stroke:#181818;stroke-width:0.5;" x1="943.5" x2="1072.5" y1="402" y2="402"/><line style="stroke:#181818;stroke-width:0.5;" x1="943.5" x2="1072.5" y1="410" y2="410"/></g><!--class SystemAdministrator--><g id="elem_SystemAdministrator"><rect codeLine="10" fill="#F1F1F1" height="48" id="SystemAdministrator" rx="2.5" ry="2.5" style="stroke:#181818;stroke-width:0.5;" width="161" x="272.5" y="262"/><ellipse cx="287.5" cy="278" fill="#ADD1B2" rx="11" ry="11" style="stroke:#181818;stroke-width:1.0;"/><path d="M290.2656,273.875 Q290.4219,273.6563 290.6094,273.5469 Q290.7969,273.4375 291.0156,273.4375 Q291.3906,273.4375 291.625,273.7031 Q291.8594,273.9531 291.8594,274.5625 L291.8594,276.0156 Q291.8594,276.625 291.625,276.8906 Q291.3906,277.1563 291.0156,277.1563 Q290.6719,277.1563 290.4688,276.9531 Q290.2656,276.7656 290.1563,276.25 Q290.1094,275.8906 289.9219,275.7031 Q289.5938,275.3281 288.9844,275.1094 Q288.375,274.8906 287.75,274.8906 Q286.9844,274.8906 286.3438,275.2188 Q285.7188,275.5469 285.2188,276.2969 Q284.7344,277.0469 284.7344,278.0781 L284.7344,279.1719 Q284.7344,280.4063 285.625,281.2344 Q286.5156,282.0469 288.1094,282.0469 Q289.0469,282.0469 289.7031,281.7969 Q290.0938,281.6406 290.5156,281.2031 Q290.7813,280.9375 290.9219,280.8594 Q291.0781,280.7813 291.2813,280.7813 Q291.6094,280.7813 291.8594,281.0469 Q292.125,281.2969 292.125,281.6406 Q292.125,281.9844 291.7813,282.3906 Q291.2813,282.9688 290.4844,283.2969 Q289.4063,283.75 288.1094,283.75 Q286.5938,283.75 285.3906,283.125 Q284.4063,282.625 283.7188,281.5625 Q283.0313,280.4844 283.0313,279.2031 L283.0313,278.0469 Q283.0313,276.7188 283.6406,275.5781 Q284.2656,274.4219 285.3594,273.8125 Q286.4531,273.1875 287.6875,273.1875 Q288.4219,273.1875 289.0625,273.3594 Q289.7188,273.5156 290.2656,273.875 Z " fill="#000000"/><text fill="#000000" font-family="sans-serif" font-size="14" lengthAdjust="spacing" textLength="129" x="301.5" y="283.7285">SystemAdministrator</text><line style="stroke:#181818;stroke-width:0.5;" x1="273.5" x2="432.5" y1="294" y2="294"/><line style="stroke:#181818;stroke-width:0.5;" x1="273.5" x2="432.5" y1="302" y2="302"/></g><!--class Transaction--><g id="elem_Transaction"><rect codeLine="11" fill="#F1F1F1" height="48" id="Transaction" rx="2.5" ry="2.5" style="stroke:#181818;stroke-width:0.5;" width="107" x="1108.5" y="370"/><ellipse cx="1123.5" cy="386" fill="#ADD1B2" rx="11" ry="11" style="stroke:#181818;stroke-width:1.0;"/><path d="M1126.2656,381.875 Q1126.4219,381.6563 1126.6094,381.5469 Q1126.7969,381.4375 1127.0156,381.4375 Q1127.3906,381.4375 1127.625,381.7031 Q1127.8594,381.9531 1127.8594,382.5625 L1127.8594,384.0156 Q1127.8594,384.625 1127.625,384.8906 Q1127.3906,385.1563 1127.0156,385.1563 Q1126.6719,385.1563 1126.4688,384.9531 Q1126.2656,384.7656 1126.1563,384.25 Q1126.1094,383.8906 1125.9219,383.7031 Q1125.5938,383.3281 1124.9844,383.1094 Q1124.375,382.8906 1123.75,382.8906 Q1122.9844,382.8906 1122.3438,383.2188 Q1121.7188,383.5469 1121.2188,384.2969 Q1120.7344,385.0469 1120.7344,386.0781 L1120.7344,387.1719 Q1120.7344,388.4063 1121.625,389.2344 Q1122.5156,390.0469 1124.1094,390.0469 Q1125.0469,390.0469 1125.7031,389.7969 Q1126.0938,389.6406 1126.5156,389.2031 Q1126.7813,388.9375 1126.9219,388.8594 Q1127.0781,388.7813 1127.2813,388.7813 Q1127.6094,388.7813 1127.8594,389.0469 Q1128.125,389.2969 1128.125,389.6406 Q1128.125,389.9844 1127.7813,390.3906 Q1127.2813,390.9688 1126.4844,391.2969 Q1125.4063,391.75 1124.1094,391.75 Q1122.5938,391.75 1121.3906,391.125 Q1120.4063,390.625 1119.7188,389.5625 Q1119.0313,388.4844 1119.0313,387.2031 L1119.0313,386.0469 Q1119.0313,384.7188 1119.6406,383.5781 Q1120.2656,382.4219 1121.3594,381.8125 Q1122.4531,381.1875 1123.6875,381.1875 Q1124.4219,381.1875 1125.0625,381.3594 Q1125.7188,381.5156 1126.2656,381.875 Z " fill="#000000"/><text fill="#000000" font-family="sans-serif" font-size="14" lengthAdjust="spacing" textLength="75" x="1137.5" y="391.7285">Transaction</text><line style="stroke:#181818;stroke-width:0.5;" x1="1109.5" x2="1214.5" y1="402" y2="402"/><line style="stroke:#181818;stroke-width:0.5;" x1="1109.5" x2="1214.5" y1="410" y2="410"/></g><!--class Treasurer--><g id="elem_Treasurer"><rect codeLine="12" fill="#F1F1F1" height="48" id="Treasurer" rx="2.5" ry="2.5" style="stroke:#181818;stroke-width:0.5;" width="95" x="142.5" y="262"/><ellipse cx="157.5" cy="278" fill="#ADD1B2" rx="11" ry="11" style="stroke:#181818;stroke-width:1.0;"/><path d="M160.2656,273.875 Q160.4219,273.6563 160.6094,273.5469 Q160.7969,273.4375 161.0156,273.4375 Q161.3906,273.4375 161.625,273.7031 Q161.8594,273.9531 161.8594,274.5625 L161.8594,276.0156 Q161.8594,276.625 161.625,276.8906 Q161.3906,277.1563 161.0156,277.1563 Q160.6719,277.1563 160.4688,276.9531 Q160.2656,276.7656 160.1563,276.25 Q160.1094,275.8906 159.9219,275.7031 Q159.5938,275.3281 158.9844,275.1094 Q158.375,274.8906 157.75,274.8906 Q156.9844,274.8906 156.3438,275.2188 Q155.7188,275.5469 155.2188,276.2969 Q154.7344,277.0469 154.7344,278.0781 L154.7344,279.1719 Q154.7344,280.4063 155.625,281.2344 Q156.5156,282.0469 158.1094,282.0469 Q159.0469,282.0469 159.7031,281.7969 Q160.0938,281.6406 160.5156,281.2031 Q160.7813,280.9375 160.9219,280.8594 Q161.0781,280.7813 161.2813,280.7813 Q161.6094,280.7813 161.8594,281.0469 Q162.125,281.2969 162.125,281.6406 Q162.125,281.9844 161.7813,282.3906 Q161.2813,282.9688 160.4844,283.2969 Q159.4063,283.75 158.1094,283.75 Q156.5938,283.75 155.3906,283.125 Q154.4063,282.625 153.7188,281.5625 Q153.0313,280.4844 153.0313,279.2031 L153.0313,278.0469 Q153.0313,276.7188 153.6406,275.5781 Q154.2656,274.4219 155.3594,273.8125 Q156.4531,273.1875 157.6875,273.1875 Q158.4219,273.1875 159.0625,273.3594 Q159.7188,273.5156 160.2656,273.875 Z " fill="#000000"/><text fill="#000000" font-family="sans-serif" font-size="14" lengthAdjust="spacing" textLength="63" x="171.5" y="283.7285">Treasurer</text><line style="stroke:#181818;stroke-width:0.5;" x1="143.5" x2="236.5" y1="294" y2="294"/><line style="stroke:#181818;stroke-width:0.5;" x1="143.5" x2="236.5" y1="302" y2="302"/></g><!--class ReimbursementStatus--><g id="elem_ReimbursementStatus"><rect codeLine="13" fill="#F1F1F1" height="48" id="ReimbursementStatus" rx="2.5" ry="2.5" style="stroke:#181818;stroke-width:0.5;" width="171" x="1250.5" y="370"/><ellipse cx="1265.5" cy="386" fill="#EB937F" rx="11" ry="11" style="stroke:#181818;stroke-width:1.0;"/><path d="M1264.3594,386.7969 L1264.3594,389.2969 L1268.6875,389.2969 L1268.6875,388.375 Q1268.6875,387.7656 1268.9219,387.5 Q1269.1719,387.2344 1269.5469,387.2344 Q1269.9219,387.2344 1270.1563,387.5 Q1270.3906,387.7656 1270.3906,388.375 L1270.3906,391 L1262.3906,391 Q1261.7656,391 1261.5,390.7656 Q1261.25,390.5313 1261.25,390.1406 Q1261.25,389.7656 1261.5156,389.5313 Q1261.7813,389.2969 1262.3906,389.2969 L1262.6563,389.2969 L1262.6563,382.6406 L1262.3906,382.6406 Q1261.7656,382.6406 1261.5,382.4063 Q1261.25,382.1719 1261.25,381.7813 Q1261.25,381.4063 1261.5,381.1719 Q1261.7656,380.9375 1262.3906,380.9375 L1270.0156,380.9375 L1270.0156,383.5313 Q1270.0156,384.1406 1269.7813,384.4063 Q1269.5625,384.6563 1269.1719,384.6563 Q1268.7969,384.6563 1268.5625,384.4063 Q1268.3281,384.1406 1268.3281,383.5313 L1268.3281,382.6406 L1264.3594,382.6406 L1264.3594,385.0938 L1265.8438,385.0938 Q1265.8438,384.4375 1265.9688,384.25 Q1266.2344,383.8438 1266.7031,383.8438 Q1267.0781,383.8438 1267.3125,384.1094 Q1267.5469,384.3594 1267.5469,384.9688 L1267.5469,386.9375 Q1267.5469,387.4844 1267.4219,387.6719 Q1267.1563,388.0625 1266.7031,388.0625 Q1266.2344,388.0625 1265.9688,387.6563 Q1265.8438,387.4688 1265.8438,386.7969 L1264.3594,386.7969 Z " fill="#000000"/><text fill="#000000" font-family="sans-serif" font-size="14" lengthAdjust="spacing" textLength="139" x="1279.5" y="391.7285">ReimbursementStatus</text><line style="stroke:#181818;stroke-width:0.5;" x1="1251.5" x2="1420.5" y1="402" y2="402"/><line style="stroke:#181818;stroke-width:0.5;" x1="1251.5" x2="1420.5" y1="410" y2="410"/></g><!--class SortType--><g id="elem_SortType"><rect codeLine="14" fill="#F1F1F1" height="48" id="SortType" rx="2.5" ry="2.5" style="stroke:#181818;stroke-width:0.5;" width="90" x="963" y="478"/><ellipse cx="978" cy="494" fill="#EB937F" rx="11" ry="11" style="stroke:#181818;stroke-width:1.0;"/><path d="M976.8594,494.7969 L976.8594,497.2969 L981.1875,497.2969 L981.1875,496.375 Q981.1875,495.7656 981.4219,495.5 Q981.6719,495.2344 982.0469,495.2344 Q982.4219,495.2344 982.6563,495.5 Q982.8906,495.7656 982.8906,496.375 L982.8906,499 L974.8906,499 Q974.2656,499 974,498.7656 Q973.75,498.5313 973.75,498.1406 Q973.75,497.7656 974.0156,497.5313 Q974.2813,497.2969 974.8906,497.2969 L975.1563,497.2969 L975.1563,490.6406 L974.8906,490.6406 Q974.2656,490.6406 974,490.4063 Q973.75,490.1719 973.75,489.7813 Q973.75,489.4063 974,489.1719 Q974.2656,488.9375 974.8906,488.9375 L982.5156,488.9375 L982.5156,491.5313 Q982.5156,492.1406 982.2813,492.4063 Q982.0625,492.6563 981.6719,492.6563 Q981.2969,492.6563 981.0625,492.4063 Q980.8281,492.1406 980.8281,491.5313 L980.8281,490.6406 L976.8594,490.6406 L976.8594,493.0938 L978.3438,493.0938 Q978.3438,492.4375 978.4688,492.25 Q978.7344,491.8438 979.2031,491.8438 Q979.5781,491.8438 979.8125,492.1094 Q980.0469,492.3594 980.0469,492.9688 L980.0469,494.9375 Q980.0469,495.4844 979.9219,495.6719 Q979.6563,496.0625 979.2031,496.0625 Q978.7344,496.0625 978.4688,495.6563 Q978.3438,495.4688 978.3438,494.7969 L976.8594,494.7969 Z " fill="#000000"/><text fill="#000000" font-family="sans-serif" font-size="14" lengthAdjust="spacing" textLength="58" x="992" y="499.7285">SortType</text><line style="stroke:#181818;stroke-width:0.5;" x1="964" x2="1052" y1="510" y2="510"/><line style="stroke:#181818;stroke-width:0.5;" x1="964" x2="1052" y1="518" y2="518"/></g><!--class TransactionType--><g id="elem_TransactionType"><rect codeLine="15" fill="#F1F1F1" height="48" id="TransactionType" rx="2.5" ry="2.5" style="stroke:#181818;stroke-width:0.5;" width="139" x="1088.5" y="478"/><ellipse cx="1103.5" cy="494" fill="#EB937F" rx="11" ry="11" style="stroke:#181818;stroke-width:1.0;"/><path d="M1102.3594,494.7969 L1102.3594,497.2969 L1106.6875,497.2969 L1106.6875,496.375 Q1106.6875,495.7656 1106.9219,495.5 Q1107.1719,495.2344 1107.5469,495.2344 Q1107.9219,495.2344 1108.1563,495.5 Q1108.3906,495.7656 1108.3906,496.375 L1108.3906,499 L1100.3906,499 Q1099.7656,499 1099.5,498.7656 Q1099.25,498.5313 1099.25,498.1406 Q1099.25,497.7656 1099.5156,497.5313 Q1099.7813,497.2969 1100.3906,497.2969 L1100.6563,497.2969 L1100.6563,490.6406 L1100.3906,490.6406 Q1099.7656,490.6406 1099.5,490.4063 Q1099.25,490.1719 1099.25,489.7813 Q1099.25,489.4063 1099.5,489.1719 Q1099.7656,488.9375 1100.3906,488.9375 L1108.0156,488.9375 L1108.0156,491.5313 Q1108.0156,492.1406 1107.7813,492.4063 Q1107.5625,492.6563 1107.1719,492.6563 Q1106.7969,492.6563 1106.5625,492.4063 Q1106.3281,492.1406 1106.3281,491.5313 L1106.3281,490.6406 L1102.3594,490.6406 L1102.3594,493.0938 L1103.8438,493.0938 Q1103.8438,492.4375 1103.9688,492.25 Q1104.2344,491.8438 1104.7031,491.8438 Q1105.0781,491.8438 1105.3125,492.1094 Q1105.5469,492.3594 1105.5469,492.9688 L1105.5469,494.9375 Q1105.5469,495.4844 1105.4219,495.6719 Q1105.1563,496.0625 1104.7031,496.0625 Q1104.2344,496.0625 1103.9688,495.6563 Q1103.8438,495.4688 1103.8438,494.7969 L1102.3594,494.7969 Z " fill="#000000"/><text fill="#000000" font-family="sans-serif" font-size="14" lengthAdjust="spacing" textLength="107" x="1117.5" y="499.7285">TransactionType</text><line style="stroke:#181818;stroke-width:0.5;" x1="1089.5" x2="1226.5" y1="510" y2="510"/><line style="stroke:#181818;stroke-width:0.5;" x1="1089.5" x2="1226.5" y1="518" y2="518"/></g><!--class UserType--><g id="elem_UserType"><rect codeLine="16" fill="#F1F1F1" height="48" id="UserType" rx="2.5" ry="2.5" style="stroke:#181818;stroke-width:0.5;" width="93" x="1262.5" y="478"/><ellipse cx="1277.5" cy="494" fill="#EB937F" rx="11" ry="11" style="stroke:#181818;stroke-width:1.0;"/><path d="M1276.3594,494.7969 L1276.3594,497.2969 L1280.6875,497.2969 L1280.6875,496.375 Q1280.6875,495.7656 1280.9219,495.5 Q1281.1719,495.2344 1281.5469,495.2344 Q1281.9219,495.2344 1282.1563,495.5 Q1282.3906,495.7656 1282.3906,496.375 L1282.3906,499 L1274.3906,499 Q1273.7656,499 1273.5,498.7656 Q1273.25,498.5313 1273.25,498.1406 Q1273.25,497.7656 1273.5156,497.5313 Q1273.7813,497.2969 1274.3906,497.2969 L1274.6563,497.2969 L1274.6563,490.6406 L1274.3906,490.6406 Q1273.7656,490.6406 1273.5,490.4063 Q1273.25,490.1719 1273.25,489.7813 Q1273.25,489.4063 1273.5,489.1719 Q1273.7656,488.9375 1274.3906,488.9375 L1282.0156,488.9375 L1282.0156,491.5313 Q1282.0156,492.1406 1281.7813,492.4063 Q1281.5625,492.6563 1281.1719,492.6563 Q1280.7969,492.6563 1280.5625,492.4063 Q1280.3281,492.1406 1280.3281,491.5313 L1280.3281,490.6406 L1276.3594,490.6406 L1276.3594,493.0938 L1277.8438,493.0938 Q1277.8438,492.4375 1277.9688,492.25 Q1278.2344,491.8438 1278.7031,491.8438 Q1279.0781,491.8438 1279.3125,492.1094 Q1279.5469,492.3594 1279.5469,492.9688 L1279.5469,494.9375 Q1279.5469,495.4844 1279.4219,495.6719 Q1279.1563,496.0625 1278.7031,496.0625 Q1278.2344,496.0625 1277.9688,495.6563 Q1277.8438,495.4688 1277.8438,494.7969 L1276.3594,494.7969 Z " fill="#000000"/><text fill="#000000" font-family="sans-serif" font-size="14" lengthAdjust="spacing" textLength="61" x="1291.5" y="499.7285">UserType</text><line style="stroke:#181818;stroke-width:0.5;" x1="1263.5" x2="1354.5" y1="510" y2="510"/><line style="stroke:#181818;stroke-width:0.5;" x1="1263.5" x2="1354.5" y1="518" y2="518"/></g><!--link BudgetAccount to Account--><g id="link_BudgetAccount_Account"><path codeLine="17" d="M818.56,310 C804.4,327.66 796.178,337.8952 781.958,355.6352 " fill="none" id="BudgetAccount-to-Account" style="stroke:#181818;stroke-width:1.0;"/><polygon fill="none" points="770.7,369.68,786.6396,359.3879,777.2764,351.8825,770.7,369.68" style="stroke:#181818;stroke-width:1.0;"/></g><!--link Organizer to User--><g id="link_Organizer_User"><path codeLine="18" d="M480.63,310 C451.89,328.69 426.8205,344.9979 399.2605,362.9179 " fill="none" id="Organizer-to-User" style="stroke:#181818;stroke-width:1.0;"/><polygon fill="none" points="384.17,372.73,402.5312,367.9481,395.9898,357.8877,384.17,372.73" style="stroke:#181818;stroke-width:1.0;"/></g><!--link PersonalAccount to Account--><g id="link_PersonalAccount_Account"><path codeLine="19" d="M686.23,310 C700.22,327.66 708.2796,337.8333 722.3396,355.5733 " fill="none" id="PersonalAccount-to-Account" style="stroke:#181818;stroke-width:1.0;"/><polygon fill="none" points="733.52,369.68,727.0418,351.8465,717.6374,359.3001,733.52,369.68" style="stroke:#181818;stroke-width:1.0;"/></g><!--link SystemAdministrator to User--><g id="link_SystemAdministrator_User"><path codeLine="20" d="M353,310 C353,327.66 353,333.94 353,351.68 " fill="none" id="SystemAdministrator-to-User" style="stroke:#181818;stroke-width:1.0;"/><polygon fill="none" points="353,369.68,359,351.68,347,351.68,353,369.68" style="stroke:#181818;stroke-width:1.0;"/></g><!--link Treasurer to User--><g id="link_Treasurer_User"><path codeLine="21" d="M225.37,310 C254.11,328.69 279.1795,344.9979 306.7395,362.9179 " fill="none" id="Treasurer-to-User" style="stroke:#181818;stroke-width:1.0;"/><polygon fill="none" points="321.83,372.73,310.0102,357.8877,303.4688,367.9481,321.83,372.73" style="stroke:#181818;stroke-width:1.0;"/></g><!--SRC=[lLJBQiCm4BpdA_m3qIS4NEWXK6YetGzOhnT7HO-mkmfroSVNRade8HTj8HSX2SqCC-m81b46r0O3Y3G8JevmP1A5v1q4xsWixhmSYDrGn2SI2Ndow5h4N99km4xnBiIRUjXJ6IVIgtuz_cLT8OHvdyxBmx55zJazVoATres1yPMdvVeB_WStXN4WbfmWsECuSFuWj23VoCUXi50aat8tYr9in-YJNuT8ioM1dY49e37xdWcay98zfHBjzZi5BL9FqcNMVZvHFVAFRnl1MhyVfBbypNPxsPb-3LCzwkL-VnXxdHvZy4uF7c3rDlashMy0]--></g></svg>